<?xml version="1.0" standalone="no"?>
<!DOCTYPE svg PUBLIC "-//W3C//DTD SVG 1.1//EN" "http://www.w3.org/Graphics/SVG/1.1/DTD/svg11.dtd">
<svg width="100%" height="100%" viewBox="0 0 11 11" version="1.1" xmlns="http://www.w3.org/2000/svg" xmlns:xlink="http://www.w3.org/1999/xlink" xml:space="preserve" style="fill-rule:evenodd;clip-rule:evenodd;stroke-linejoin:round;stroke-miterlimit:1.41421;">
    <g transform="matrix(1,0,0,1,0,-0.499962)">
        <g>
            <g>
                <g transform="matrix(1,0,0,1,0,1)">
                    <circle cx="0.321" cy="5" r="0.321" style="fill:black;"/>
                </g>
                <g transform="matrix(1,0,0,1,0,1)">
                    <circle cx="10.679" cy="5" r="0.321" style="fill:black;"/>
                </g>
                <g transform="matrix(1,0,0,1,0,1)">
                    <path d="M4.967,5.562L1.152,5.562C1.14,5.562 1.131,5.572 1.132,5.584C1.364,7.668 3.096,9.306 5.221,9.39C5.232,9.39 5.242,9.381 5.242,9.37L5.242,5.712C5.137,5.686 5.043,5.633 4.967,5.562Z" style="fill:rgb(48,106,132);fill-rule:nonzero;"/>
                    <path d="M5.759,0.63L5.759,4.288C5.864,4.314 5.958,4.367 6.034,4.438L9.849,4.438C9.861,4.438 9.87,4.428 9.869,4.416C9.636,2.332 7.904,0.694 5.779,0.61C5.768,0.609 5.759,0.618 5.759,0.63Z" style="fill:rgb(48,106,132);fill-rule:nonzero;"/>
                </g>
                <g transform="matrix(1,0,0,1,0,1)">
                    <path d="M5.759,5.712L5.759,8.573C5.759,8.584 5.769,8.594 5.78,8.593C7.464,8.51 8.838,7.228 9.064,5.585C9.066,5.573 9.056,5.562 9.044,5.562L6.033,5.562C5.957,5.633 5.863,5.686 5.759,5.712Z" style="fill:rgb(142,210,232);fill-rule:nonzero;"/>
                </g>
                <g transform="matrix(1,0,0,1,0,1)">
                    <path d="M5.241,4.288L5.241,1.427C5.241,1.416 5.231,1.406 5.22,1.407C3.536,1.49 2.162,2.772 1.936,4.415C1.934,4.427 1.944,4.438 1.956,4.438L4.967,4.438C5.043,4.367 5.137,4.314 5.241,4.288Z" style="fill:rgb(142,210,232);fill-rule:nonzero;"/>
                </g>
                <g transform="matrix(1,0,0,1,0,1)">
                    <path d="M4.788,4.848L0.218,4.848L0.218,5.151L4.788,5.151C4.776,5.103 4.769,5.052 4.769,5C4.769,4.948 4.776,4.897 4.788,4.848Z" style="fill:black;fill-rule:nonzero;"/>
                </g>
                <g transform="matrix(1,0,0,1,0,1)">
                    <path d="M6.212,4.848C6.224,4.897 6.231,4.948 6.231,5C6.231,5.052 6.224,5.103 6.212,5.152L10.714,5.152L10.714,4.848L6.212,4.848Z" style="fill:black;fill-rule:nonzero;"/>
                </g>
                <g transform="matrix(1,0,0,1,0,1)">
                    <circle cx="5.5" cy="5" r="0.321" style="fill:black;"/>
                </g>
            </g>
        </g>
    </g>
</svg>
